<svg data-encore-id="icon" role="img" aria-hidden="true" class="e-91000-icon e-91000-baseline" viewBox="0 0 16 16" style="--encore-icon-height: var(--encore-graphic-size-decorative-smaller); --encore-icon-width: var(--encore-graphic-size-decorative-smaller);"><path d="M8 1.5a6.5 6.5 0 1 0 0 13 6.5 6.5 0 0 0 0-13M0 8a8 8 0 1 1 16 0A8 8 0 0 1 0 8"></path><path d="M11.75 8a.75.75 0 0 1-.75.75H8.75V11a.75.75 0 0 1-1.5 0V8.75H5a.75.75 0 0 1 0-1.5h2.25V5a.75.75 0 0 1 1.5 0v2.25H11a.75.75 0 0 1 .75.75"></path></svg>