<svg data-encore-id="icon" role="presentation" aria-label="Volume low" aria-hidden="false" class="e-91000-icon e-91000-baseline" id="volume-icon" viewBox="0 0 16 16" style="--encore-icon-height: var(--encore-graphic-size-informative-smaller); --encore-icon-width: var(--encore-graphic-size-informative-smaller);"><path d="M9.741.85a.75.75 0 0 1 .375.65v13a.75.75 0 0 1-1.125.65l-6.925-4a3.64 3.64 0 0 1-1.33-4.967 3.64 3.64 0 0 1 1.33-1.332l6.925-4a.75.75 0 0 1 .75 0zm-6.924 5.3a2.14 2.14 0 0 0 0 3.7l5.8 3.35V2.8zm8.683 4.29V5.56a2.75 2.75 0 0 1 0 4.88"></path></svg>